# Blender 4.1.1
# www.blender.org
mtllib robot.mtl
o Cube
v 0.731562 1.000000 0.789058
v -0.731562 1.000000 0.789058
v 1.000000 1.000000 -0.810942
v -1.000000 1.000000 -0.810942
v 1.000000 -1.000000 -0.810942
v -1.000000 -1.000000 -0.810942
v 0.731562 -0.731562 0.789058
v -0.731562 -0.731562 0.789058
v -0.731562 1.731562 0.789058
v -1.000000 2.000000 -0.810942
v 0.731562 1.731562 0.789058
v 1.000000 2.000000 -0.810942
v -1.200000 1.200000 0.469058
v -1.200000 1.200000 -0.490942
v 1.200000 1.200000 -0.490942
v 1.200000 1.200000 0.469058
v -1.200000 1.800000 0.469058
v -1.200000 1.800000 -0.490942
v 1.200000 1.800000 -0.490942
v 1.200000 1.800000 0.469058
v 1.000000 1.000000 0.789058
v 1.000000 -1.000000 0.789058
v -1.000000 1.000000 0.789058
v -1.000000 -1.000000 0.789058
v 1.000000 2.000000 0.789058
v -1.000000 2.000000 0.789058
v 0.383993 1.237834 0.619774
v -0.383993 1.237834 0.619774
v 0.383993 1.493728 0.619774
v -0.383993 1.493728 0.619774
v 0.512094 1.109734 0.655479
v -0.512093 1.109734 0.655479
v 0.512094 1.621828 0.655479
v -0.512093 1.621828 0.655479
v 0.383993 1.237834 0.704349
v -0.383993 1.237834 0.704349
v 0.383993 1.493728 0.704349
v -0.383993 1.493728 0.704349
v 0.383993 1.259612 0.969943
v -0.383993 1.259612 0.969943
v 0.383993 1.471950 0.855696
v -0.383993 1.471950 0.855696
v 0.383993 1.274743 0.963368
v -0.383993 1.274743 0.963368
v 0.383993 1.530037 0.949363
v -0.383993 1.530037 0.949363
v 0.767987 1.153592 1.046148
v -0.767987 1.153592 1.046148
v 0.767987 1.664179 1.018137
v -0.767987 1.664179 1.018137
v 0.767987 0.905099 1.139498
v -0.767987 0.905099 1.139498
v 0.767987 1.926274 1.083476
v -0.767987 1.926274 1.083476
v 0.720283 0.958081 1.199771
v -0.720283 0.958081 1.199771
v 0.720283 1.884073 1.148971
v -0.720283 1.884073 1.148971
v 0.767987 0.910489 1.202382
v -0.767987 0.910489 1.202382
v 0.767987 1.931665 1.146360
v -0.767987 1.931665 1.146360
v 0.720283 0.955549 1.170225
v -0.720283 0.955549 1.170225
v 0.720283 1.881540 1.119425
v -0.720283 1.881540 1.119425
vn 0.7071 -0.7071 -0.0000
vn -1.0000 -0.0000 -0.0000
vn -0.0000 -0.0000 -1.0000
vn -0.0000 -0.0000 1.0000
vn 1.0000 -0.0000 -0.0000
vn -0.0000 -1.0000 -0.0000
vn -0.0000 1.0000 -0.0000
vn 0.5199 -0.0000 0.8542
vn -0.8480 -0.0000 0.5300
vn 0.8480 -0.0000 -0.5300
vn -0.7071 0.7071 -0.0000
vn -0.8480 -0.0000 -0.5300
vn 0.8480 -0.0000 0.5300
vn -0.7071 -0.7071 -0.0000
vn 0.7071 0.7071 -0.0000
vn -0.0000 -0.7727 0.6348
vn -0.5199 -0.0000 0.8542
vn -0.0000 0.7727 0.6348
vn -0.0000 0.2685 0.9633
vn -0.0000 -0.2685 0.9633
vn -0.2685 -0.0000 0.9633
vn 0.2685 -0.0000 0.9633
vn -0.0000 0.3985 0.9172
vn -0.0000 -0.9967 0.0817
vn -0.0000 0.9898 0.1424
vn 0.1942 -0.0537 -0.9795
vn -0.0000 0.8498 -0.5270
vn -0.0000 -0.5642 -0.8257
vn -0.1942 -0.0537 -0.9795
vn -0.0000 0.4562 -0.8899
vn -0.0000 -0.3517 -0.9361
vn -0.0000 0.2419 -0.9703
vn -0.0000 0.9963 -0.0854
vn -0.0000 -0.9963 0.0854
vn -0.0000 0.0548 0.9985
vt 0.500000 0.500000
vt 0.500000 0.250043
vt 0.250043 0.749957
vt 0.500000 0.749957
vt 0.500000 0.999913
vt 0.250043 0.999913
vt 0.250043 0.000087
vt 0.500000 0.000087
vt 0.250043 0.250043
vt 0.283592 0.533549
vt 0.500000 0.533549
vt 0.500000 0.716408
vt 0.283592 0.716408
vt 0.250043 0.500000
vt 0.000087 0.500000
vt 0.000087 0.749957
vt 0.749957 0.500000
vt 0.749957 0.749957
vt 0.671546 0.843239
vt 0.755719 0.843239
vt 0.743093 0.872800
vt 0.684173 0.872800
vt 0.880719 0.509941
vt 0.880719 0.740059
vt 0.765660 0.740059
vt 0.765660 0.509941
vt 0.755719 0.812353
vt 0.640660 0.812353
vt 0.663672 0.768934
vt 0.732707 0.768934
vt 0.857707 0.340441
vt 0.857707 0.450897
vt 0.788672 0.450898
vt 0.788672 0.340441
vt 0.857708 0.767853
vt 0.857707 0.878309
vt 0.788672 0.878309
vt 0.788672 0.767853
vt 0.755719 0.384941
vt 0.640660 0.384941
vt 0.663672 0.341523
vt 0.732707 0.341522
vt 0.640660 0.615059
vt 0.755719 0.615059
vt 0.732708 0.658478
vt 0.663672 0.658478
vt 0.640660 0.187647
vt 0.755719 0.187647
vt 0.732707 0.231066
vt 0.663672 0.231066
vt 0.500000 0.716408
vt 0.500000 0.533549
vt 0.671546 0.156761
vt 0.755719 0.156761
vt 0.698912 0.888101
vt 0.728354 0.888101
vt 0.728354 0.897832
vt 0.698911 0.897832
vt 0.684172 0.127200
vt 0.743093 0.127200
vt 0.500000 0.556420
vt 0.500000 0.693537
vt 0.500000 0.556420
vt 0.698911 0.111899
vt 0.728354 0.111899
vt 0.728354 0.102168
vt 0.698911 0.102168
vt 0.701417 0.084754
vt 0.725848 0.071609
vt 0.725849 0.928391
vt 0.701417 0.915246
vt 0.724108 0.072365
vt 0.694734 0.073977
vt 0.677311 0.029825
vt 0.736059 0.026602
vt 0.724108 0.927635
vt 0.694734 0.926023
vt 0.647155 0.022308
vt 0.764650 0.015862
vt 0.736059 0.973398
vt 0.677311 0.970175
vt 0.647155 0.977693
vt 0.764651 0.984138
vt 0.764030 0.991374
vt 0.646535 0.984928
vt 0.651710 0.990709
vt 0.758254 0.996554
vt 0.758172 0.999965
vt 0.651628 0.994120
vt 0.646535 0.015072
vt 0.764030 0.008626
vt 0.500000 0.560679
vt 0.500000 0.689278
vt 0.500000 0.689278
vt 0.500000 0.560678
vt 0.651710 0.009291
vt 0.758254 0.003446
vt 0.136276 0.790641
vt 0.136276 0.990609
vt 0.007544 0.990609
vt 0.007544 0.790641
vt 0.651628 0.005880
vt 0.758171 0.000035
s 0
usemtl Material
f 21/1/1 3/2/1 15/2/1 16/1/1
f 24/3/2 23/4/2 4/5/2 6/6/2
f 6/7/3 4/8/3 3/2/3 5/9/3
f 7/10/4 1/11/4 2/12/4 8/13/4
f 5/9/5 3/2/5 21/1/5 22/14/5
f 5/15/6 22/14/6 24/3/6 6/16/6
f 25/1/7 12/17/7 10/18/7 26/4/7
f 9/19/8 2/20/8 32/21/8 34/22/8
f 3/23/3 4/24/3 10/25/3 12/26/3
f 23/27/9 26/28/9 17/29/9 13/30/9
f 16/31/5 15/32/5 19/33/5 20/34/5
f 14/35/2 13/36/2 17/37/2 18/38/2
f 3/39/10 12/40/10 19/41/10 15/42/10
f 26/4/11 10/18/11 18/18/11 17/4/11
f 10/43/12 4/44/12 14/45/12 18/46/12
f 25/47/13 21/48/13 16/49/13 20/50/13
f 4/5/14 23/4/14 13/4/14 14/5/14
f 12/17/15 25/1/15 20/1/15 19/17/15
f 1/11/4 7/10/4 22/14/4 21/1/4
f 8/13/4 2/12/4 23/4/4 24/3/4
f 7/10/4 8/13/4 24/3/4 22/14/4
f 9/51/4 11/52/4 25/1/4 26/4/4
f 11/53/4 1/54/4 21/48/4 25/47/4
f 2/20/4 9/19/4 26/28/4 23/27/4
f 30/55/2 28/56/2 36/57/2 38/58/2
f 11/52/16 9/51/16 34/51/16 33/52/16
f 1/54/17 11/53/17 33/59/17 31/60/17
f 2/12/18 1/11/18 31/11/18 32/12/18
f 27/61/19 28/62/19 32/12/19 31/11/19
f 30/62/20 29/63/20 33/52/20 34/51/20
f 29/64/21 27/65/21 31/60/21 33/59/21
f 28/56/22 30/55/22 34/22/22 32/21/22
f 35/66/5 37/67/5 41/68/5 39/69/5
f 29/63/7 30/62/7 38/62/7 37/63/7
f 27/65/5 29/64/5 37/67/5 35/66/5
f 28/62/6 27/61/6 35/61/6 36/62/6
f 40/62/23 39/61/23 43/61/23 44/62/23
f 36/62/24 35/61/24 39/61/24 40/62/24
f 38/58/2 36/57/2 40/70/2 42/71/2
f 37/63/25 38/62/25 42/62/25 41/63/25
f 43/72/26 45/73/26 49/74/26 47/75/26
f 42/71/2 40/70/2 44/76/2 46/77/2
f 41/63/27 42/62/27 46/62/27 45/63/27
f 39/69/5 41/68/5 45/73/5 43/72/5
f 47/75/5 49/74/5 53/78/5 51/79/5
f 44/62/28 43/61/28 47/61/28 48/62/28
f 46/77/29 44/76/29 48/80/29 50/81/29
f 45/63/30 46/62/30 50/62/30 49/63/30
f 54/82/2 52/83/2 60/84/2 62/85/2
f 48/62/31 47/61/31 51/61/31 52/62/31
f 50/81/2 48/80/2 52/83/2 54/82/2
f 49/63/32 50/62/32 54/62/32 53/63/32
f 58/86/5 56/87/5 64/88/5 66/89/5
f 53/63/33 54/62/33 62/62/33 61/63/33
f 51/79/5 53/78/5 61/90/5 59/91/5
f 52/62/34 51/61/34 59/61/34 60/62/34
f 55/92/35 56/93/35 60/62/35 59/61/35
f 58/94/35 57/95/35 61/63/35 62/62/35
f 57/96/35 55/97/35 59/91/35 61/90/35
f 56/87/35 58/86/35 62/85/35 60/84/35
f 64/98/35 63/99/35 65/100/35 66/101/35
f 57/95/34 58/94/34 66/94/34 65/95/34
f 55/97/2 57/96/2 65/102/2 63/103/2
f 56/93/33 55/92/33 63/92/33 64/93/33
